<?xml version="1.0" encoding="UTF-8" standalone="no"?><svg xmlns="http://www.w3.org/2000/svg" xmlns:xlink="http://www.w3.org/1999/xlink" contentScriptType="application/ecmascript" contentStyleType="text/css" height="754px" preserveAspectRatio="none" style="width:561px;height:754px;" version="1.1" viewBox="0 0 561 754" width="561px" zoomAndPan="magnify"><defs><filter height="300%" id="f1cp28rp3i74k" width="300%" x="-1" y="-1"><feGaussianBlur result="blurOut" stdDeviation="2.0"/><feColorMatrix in="blurOut" result="blurOut2" type="matrix" values="0 0 0 0 0 0 0 0 0 0 0 0 0 0 0 0 0 0 .4 0"/><feOffset dx="4.0" dy="4.0" in="blurOut2" result="blurOut3"/><feBlend in="SourceGraphic" in2="blurOut3" mode="normal"/></filter></defs><g><!--class OpenReplicator--><rect fill="#FEFECE" filter="url(#f1cp28rp3i74k)" height="125.7305" id="OpenReplicator" style="stroke: #A80036; stroke-width: 1.5;" width="240" x="187.5" y="8"/><ellipse cx="258.75" cy="24" fill="#ADD1B2" rx="11" ry="11" style="stroke: #A80036; stroke-width: 1.0;"/><path d="M261.2231,30.1431 Q260.6421,30.4419 260.0029,30.5913 Q259.3638,30.7407 258.6582,30.7407 Q256.1514,30.7407 254.8315,29.0889 Q253.5117,27.437 253.5117,24.3159 Q253.5117,21.1865 254.8315,19.5347 Q256.1514,17.8828 258.6582,17.8828 Q259.3638,17.8828 260.0112,18.0322 Q260.6587,18.1816 261.2231,18.4805 L261.2231,21.2031 Q260.5923,20.6221 259.9988,20.3523 Q259.4053,20.0825 258.7744,20.0825 Q257.4297,20.0825 256.7449,21.1492 Q256.0601,22.2158 256.0601,24.3159 Q256.0601,26.4077 256.7449,27.4744 Q257.4297,28.541 258.7744,28.541 Q259.4053,28.541 259.9988,28.2712 Q260.5923,28.0015 261.2231,27.4204 Z "/><text fill="#000000" font-family="sans-serif" font-size="12" lengthAdjust="spacingAndGlyphs" textLength="89" x="279.25" y="28.5352">OpenReplicator</text><line style="stroke: #A80036; stroke-width: 1.5;" x1="188.5" x2="426.5" y1="40" y2="40"/><polygon fill="none" points="198.5,46,202.5,50,198.5,54,194.5,50" style="stroke: #B38D22; stroke-width: 1.0;"/><text fill="#000000" font-family="sans-serif" font-size="11" lengthAdjust="spacingAndGlyphs" textLength="108" x="207.5" y="54.6348">Transport transport</text><polygon fill="none" points="198.5,58.9551,202.5,62.9551,198.5,66.9551,194.5,62.9551" style="stroke: #B38D22; stroke-width: 1.0;"/><text fill="#000000" font-family="sans-serif" font-size="11" lengthAdjust="spacingAndGlyphs" textLength="138" x="207.5" y="67.5898">BinlogParser binlogParser</text><polygon fill="none" points="198.5,71.9102,202.5,75.9102,198.5,79.9102,194.5,75.9102" style="stroke: #B38D22; stroke-width: 1.0;"/><text fill="#000000" font-family="sans-serif" font-size="11" lengthAdjust="spacingAndGlyphs" textLength="214" x="207.5" y="80.5449">BinlogEventListener binlogEventListener</text><line style="stroke: #A80036; stroke-width: 1.5;" x1="188.5" x2="426.5" y1="86.8652" y2="86.8652"/><ellipse cx="198.5" cy="97.8652" fill="#84BE84" rx="3" ry="3" style="stroke: #038048; stroke-width: 1.0;"/><text fill="#000000" font-family="sans-serif" font-size="11" lengthAdjust="spacingAndGlyphs" textLength="33" x="207.5" y="101.5">start()</text><ellipse cx="198.5" cy="110.8203" fill="#84BE84" rx="3" ry="3" style="stroke: #038048; stroke-width: 1.0;"/><text fill="#000000" font-family="sans-serif" font-size="11" lengthAdjust="spacingAndGlyphs" textLength="32" x="207.5" y="114.4551">stop()</text><polygon fill="#FFFF44" points="198.5,118.7754,202.5,122.7754,198.5,126.7754,194.5,122.7754" style="stroke: #B38D22; stroke-width: 1.0;"/><text fill="#000000" font-family="sans-serif" font-size="11" lengthAdjust="spacingAndGlyphs" textLength="72" x="207.5" y="127.4102">dumpBinlog()</text><!--class Transport--><rect fill="#FEFECE" filter="url(#f1cp28rp3i74k)" height="112.7754" id="Transport" style="stroke: #A80036; stroke-width: 1.5;" width="126" x="63.5" y="194"/><ellipse cx="95.15" cy="210" fill="#B4A7E5" rx="11" ry="11" style="stroke: #A80036; stroke-width: 1.0;"/><path d="M91.5777,206.2651 L91.5777,204.1069 L98.9571,204.1069 L98.9571,206.2651 L96.4918,206.2651 L96.4918,214.3418 L98.9571,214.3418 L98.9571,216.5 L91.5777,216.5 L91.5777,214.3418 L94.0431,214.3418 L94.0431,206.2651 Z "/><text fill="#000000" font-family="sans-serif" font-size="12" font-style="italic" lengthAdjust="spacingAndGlyphs" textLength="57" x="112.85" y="214.5352">Transport</text><line style="stroke: #A80036; stroke-width: 1.5;" x1="64.5" x2="188.5" y1="226" y2="226"/><line style="stroke: #A80036; stroke-width: 1.5;" x1="64.5" x2="188.5" y1="234" y2="234"/><ellipse cx="74.5" cy="245" fill="#84BE84" rx="3" ry="3" style="stroke: #038048; stroke-width: 1.0;"/><text fill="#000000" font-family="sans-serif" font-size="11" lengthAdjust="spacingAndGlyphs" textLength="51" x="83.5" y="248.6348">connect()</text><ellipse cx="74.5" cy="257.9551" fill="#84BE84" rx="3" ry="3" style="stroke: #038048; stroke-width: 1.0;"/><text fill="#000000" font-family="sans-serif" font-size="11" lengthAdjust="spacingAndGlyphs" textLength="67" x="83.5" y="261.5898">disconnect()</text><ellipse cx="74.5" cy="270.9102" fill="#84BE84" rx="3" ry="3" style="stroke: #038048; stroke-width: 1.0;"/><text fill="#000000" font-family="sans-serif" font-size="11" lengthAdjust="spacingAndGlyphs" textLength="68" x="83.5" y="274.5449">getContext()</text><ellipse cx="74.5" cy="283.8652" fill="#84BE84" rx="3" ry="3" style="stroke: #038048; stroke-width: 1.0;"/><text fill="#000000" font-family="sans-serif" font-size="11" lengthAdjust="spacingAndGlyphs" textLength="90" x="83.5" y="287.5">getInputStream()</text><ellipse cx="74.5" cy="296.8203" fill="#84BE84" rx="3" ry="3" style="stroke: #038048; stroke-width: 1.0;"/><text fill="#000000" font-family="sans-serif" font-size="11" lengthAdjust="spacingAndGlyphs" textLength="100" x="83.5" y="300.4551">getOutputStream()</text><!--class BinlogParser--><rect fill="#FEFECE" filter="url(#f1cp28rp3i74k)" height="99.8203" id="BinlogParser" style="stroke: #A80036; stroke-width: 1.5;" width="131" x="242" y="200.5"/><ellipse cx="269.6" cy="216.5" fill="#B4A7E5" rx="11" ry="11" style="stroke: #A80036; stroke-width: 1.0;"/><path d="M266.0277,212.7651 L266.0277,210.6069 L273.4071,210.6069 L273.4071,212.7651 L270.9418,212.7651 L270.9418,220.8418 L273.4071,220.8418 L273.4071,223 L266.0277,223 L266.0277,220.8418 L268.4931,220.8418 L268.4931,212.7651 Z "/><text fill="#000000" font-family="sans-serif" font-size="12" font-style="italic" lengthAdjust="spacingAndGlyphs" textLength="71" x="286.4" y="221.0352">BinlogParser</text><line style="stroke: #A80036; stroke-width: 1.5;" x1="243" x2="372" y1="232.5" y2="232.5"/><line style="stroke: #A80036; stroke-width: 1.5;" x1="243" x2="372" y1="240.5" y2="240.5"/><ellipse cx="253" cy="251.5" fill="#84BE84" rx="3" ry="3" style="stroke: #038048; stroke-width: 1.0;"/><text fill="#000000" font-family="sans-serif" font-size="11" lengthAdjust="spacingAndGlyphs" textLength="33" x="262" y="255.1348">start()</text><ellipse cx="253" cy="264.4551" fill="#84BE84" rx="3" ry="3" style="stroke: #038048; stroke-width: 1.0;"/><text fill="#000000" font-family="sans-serif" font-size="11" lengthAdjust="spacingAndGlyphs" textLength="32" x="262" y="268.0898">stop()</text><ellipse cx="253" cy="277.4102" fill="#84BE84" rx="3" ry="3" style="stroke: #038048; stroke-width: 1.0;"/><text fill="#000000" font-family="sans-serif" font-size="11" lengthAdjust="spacingAndGlyphs" textLength="96" x="262" y="281.0449">setEventListener()</text><ellipse cx="253" cy="290.3652" fill="#84BE84" rx="3" ry="3" style="stroke: #038048; stroke-width: 1.0;"/><text fill="#000000" font-family="sans-serif" font-size="11" lengthAdjust="spacingAndGlyphs" textLength="105" x="262" y="294">addParserListener()</text><!--class BinlogEventListener--><rect fill="#FEFECE" filter="url(#f1cp28rp3i74k)" height="60.9551" id="BinlogEventListener" style="stroke: #A80036; stroke-width: 1.5;" width="142" x="408.5" y="220"/><ellipse cx="423.5" cy="236" fill="#B4A7E5" rx="11" ry="11" style="stroke: #A80036; stroke-width: 1.0;"/><path d="M419.9277,232.2651 L419.9277,230.1069 L427.3071,230.1069 L427.3071,232.2651 L424.8418,232.2651 L424.8418,240.3418 L427.3071,240.3418 L427.3071,242.5 L419.9277,242.5 L419.9277,240.3418 L422.3931,240.3418 L422.3931,232.2651 Z "/><text fill="#000000" font-family="sans-serif" font-size="12" font-style="italic" lengthAdjust="spacingAndGlyphs" textLength="110" x="437.5" y="240.5352">BinlogEventListener</text><line style="stroke: #A80036; stroke-width: 1.5;" x1="409.5" x2="549.5" y1="252" y2="252"/><line style="stroke: #A80036; stroke-width: 1.5;" x1="409.5" x2="549.5" y1="260" y2="260"/><ellipse cx="419.5" cy="271" fill="#84BE84" rx="3" ry="3" style="stroke: #038048; stroke-width: 1.0;"/><text fill="#000000" font-family="sans-serif" font-size="11" lengthAdjust="spacingAndGlyphs" textLength="57" x="428.5" y="274.6348">onEvents()</text><!--class AbstractTransport--><rect fill="#FEFECE" filter="url(#f1cp28rp3i74k)" height="73.9102" id="AbstractTransport" style="stroke: #A80036; stroke-width: 1.5;" width="137" x="23" y="406"/><ellipse cx="38" cy="422" fill="#A9DCDF" rx="11" ry="11" style="stroke: #A80036; stroke-width: 1.0;"/><path d="M38.1133,417.5981 L36.9595,422.6699 L39.2754,422.6699 Z M36.6191,415.3569 L39.6157,415.3569 L42.9609,427.75 L40.5122,427.75 L39.7485,424.687 L36.4697,424.687 L35.7227,427.75 L33.2739,427.75 Z "/><text fill="#000000" font-family="sans-serif" font-size="12" font-style="italic" lengthAdjust="spacingAndGlyphs" textLength="105" x="52" y="426.5352">AbstractTransport</text><line style="stroke: #A80036; stroke-width: 1.5;" x1="24" x2="159" y1="438" y2="438"/><polygon fill="none" points="34,444,38,448,34,452,30,448" style="stroke: #B38D22; stroke-width: 1.0;"/><text fill="#000000" font-family="sans-serif" font-size="11" lengthAdjust="spacingAndGlyphs" textLength="87" x="43" y="452.6348">Context context</text><line style="stroke: #A80036; stroke-width: 1.5;" x1="24" x2="159" y1="458.9551" y2="458.9551"/><ellipse cx="34" cy="469.9551" fill="#84BE84" rx="3" ry="3" style="stroke: #038048; stroke-width: 1.0;"/><text fill="#000000" font-family="sans-serif" font-size="11" lengthAdjust="spacingAndGlyphs" textLength="68" x="43" y="473.5898">getContext()</text><!--class TransportImpl--><rect fill="#FEFECE" filter="url(#f1cp28rp3i74k)" height="164.5957" id="TransportImpl" style="stroke: #A80036; stroke-width: 1.5;" width="171" x="6" y="579"/><ellipse cx="46.65" cy="595" fill="#ADD1B2" rx="11" ry="11" style="stroke: #A80036; stroke-width: 1.0;"/><path d="M49.1231,601.1431 Q48.5421,601.4419 47.9029,601.5913 Q47.2638,601.7407 46.5582,601.7407 Q44.0514,601.7407 42.7315,600.0889 Q41.4117,598.437 41.4117,595.3159 Q41.4117,592.1865 42.7315,590.5347 Q44.0514,588.8828 46.5582,588.8828 Q47.2638,588.8828 47.9112,589.0322 Q48.5587,589.1816 49.1231,589.4805 L49.1231,592.2031 Q48.4923,591.6221 47.8988,591.3523 Q47.3053,591.0825 46.6744,591.0825 Q45.3297,591.0825 44.6449,592.1492 Q43.9601,593.2158 43.9601,595.3159 Q43.9601,597.4077 44.6449,598.4744 Q45.3297,599.541 46.6744,599.541 Q47.3053,599.541 47.8988,599.2712 Q48.4923,599.0015 49.1231,598.4204 Z "/><text fill="#000000" font-family="sans-serif" font-size="12" lengthAdjust="spacingAndGlyphs" textLength="82" x="66.35" y="599.5352">TransportImpl</text><line style="stroke: #A80036; stroke-width: 1.5;" x1="7" x2="176" y1="611" y2="611"/><polygon fill="none" points="17,617,21,621,17,625,13,621" style="stroke: #B38D22; stroke-width: 1.0;"/><text fill="#000000" font-family="sans-serif" font-size="11" lengthAdjust="spacingAndGlyphs" textLength="73" x="26" y="625.6348">Socket socket</text><polygon fill="none" points="17,629.9551,21,633.9551,17,637.9551,13,633.9551" style="stroke: #B38D22; stroke-width: 1.0;"/><text fill="#000000" font-family="sans-serif" font-size="11" lengthAdjust="spacingAndGlyphs" textLength="131" x="26" y="638.5898">TransportInputStream is</text><polygon fill="none" points="17,642.9102,21,646.9102,17,650.9102,13,646.9102" style="stroke: #B38D22; stroke-width: 1.0;"/><text fill="#000000" font-family="sans-serif" font-size="11" lengthAdjust="spacingAndGlyphs" textLength="145" x="26" y="651.5449">TransportOutputStream os</text><polygon fill="none" points="17,655.8652,21,659.8652,17,663.8652,13,659.8652" style="stroke: #B38D22; stroke-width: 1.0;"/><text fill="#000000" font-family="sans-serif" font-size="11" lengthAdjust="spacingAndGlyphs" textLength="84" x="26" y="664.5">level1BufferSize</text><polygon fill="none" points="17,668.8203,21,672.8203,17,676.8203,13,672.8203" style="stroke: #B38D22; stroke-width: 1.0;"/><text fill="#000000" font-family="sans-serif" font-size="11" lengthAdjust="spacingAndGlyphs" textLength="84" x="26" y="677.4551">level2BufferSize</text><line style="stroke: #A80036; stroke-width: 1.5;" x1="7" x2="176" y1="683.7754" y2="683.7754"/><ellipse cx="17" cy="694.7754" fill="#84BE84" rx="3" ry="3" style="stroke: #038048; stroke-width: 1.0;"/><text fill="#000000" font-family="sans-serif" font-size="11" lengthAdjust="spacingAndGlyphs" textLength="51" x="26" y="698.4102">connect()</text><ellipse cx="17" cy="707.7305" fill="#84BE84" rx="3" ry="3" style="stroke: #038048; stroke-width: 1.0;"/><text fill="#000000" font-family="sans-serif" font-size="11" lengthAdjust="spacingAndGlyphs" textLength="67" x="26" y="711.3652">disconnect()</text><ellipse cx="17" cy="720.6855" fill="#84BE84" rx="3" ry="3" style="stroke: #038048; stroke-width: 1.0;"/><text fill="#000000" font-family="sans-serif" font-size="11" lengthAdjust="spacingAndGlyphs" textLength="90" x="26" y="724.3203">getInputStream()</text><ellipse cx="17" cy="733.6406" fill="#84BE84" rx="3" ry="3" style="stroke: #038048; stroke-width: 1.0;"/><text fill="#000000" font-family="sans-serif" font-size="11" lengthAdjust="spacingAndGlyphs" textLength="100" x="26" y="737.2754">getOutputStream()</text><!--class AbstractBinlogParser--><rect fill="#FEFECE" filter="url(#f1cp28rp3i74k)" height="151.6406" id="AbstractBinlogParser" style="stroke: #A80036; stroke-width: 1.5;" width="260" x="195.5" y="367"/><ellipse cx="261.75" cy="383" fill="#A9DCDF" rx="11" ry="11" style="stroke: #A80036; stroke-width: 1.0;"/><path d="M261.8633,378.5981 L260.7095,383.6699 L263.0254,383.6699 Z M260.3691,376.3569 L263.3657,376.3569 L266.7109,388.75 L264.2622,388.75 L263.4985,385.687 L260.2197,385.687 L259.4727,388.75 L257.0239,388.75 Z "/><text fill="#000000" font-family="sans-serif" font-size="12" font-style="italic" lengthAdjust="spacingAndGlyphs" textLength="119" x="282.25" y="387.5352">AbstractBinlogParser</text><line style="stroke: #A80036; stroke-width: 1.5;" x1="196.5" x2="454.5" y1="399" y2="399"/><polygon fill="none" points="206.5,405,210.5,409,206.5,413,202.5,409" style="stroke: #B38D22; stroke-width: 1.0;"/><text fill="#000000" font-family="sans-serif" font-size="11" lengthAdjust="spacingAndGlyphs" textLength="148" x="215.5" y="413.6348">BinlogEventFilter eventFilter</text><polygon fill="none" points="206.5,417.9551,210.5,421.9551,206.5,425.9551,202.5,421.9551" style="stroke: #B38D22; stroke-width: 1.0;"/><text fill="#000000" font-family="sans-serif" font-size="11" lengthAdjust="spacingAndGlyphs" textLength="180" x="215.5" y="426.5898">BinlogEventListener eventListener</text><polygon fill="none" points="206.5,430.9102,210.5,434.9102,206.5,438.9102,202.5,434.9102" style="stroke: #B38D22; stroke-width: 1.0;"/><text fill="#000000" font-family="sans-serif" font-size="11" lengthAdjust="spacingAndGlyphs" textLength="148" x="215.5" y="439.5449">BinlogEventParser[] parsers</text><polygon fill="none" points="206.5,443.8652,210.5,447.8652,206.5,451.8652,202.5,447.8652" style="stroke: #B38D22; stroke-width: 1.0;"/><text fill="#000000" font-family="sans-serif" font-size="11" lengthAdjust="spacingAndGlyphs" textLength="234" x="215.5" y="452.5">List&lt;BinlogParserListener&gt; parserListeners</text><line style="stroke: #A80036; stroke-width: 1.5;" x1="196.5" x2="454.5" y1="458.8203" y2="458.8203"/><ellipse cx="206.5" cy="469.8203" fill="#84BE84" rx="3" ry="3" style="stroke: #038048; stroke-width: 1.0;"/><text fill="#000000" font-family="sans-serif" font-size="11" lengthAdjust="spacingAndGlyphs" textLength="33" x="215.5" y="473.4551">start()</text><ellipse cx="206.5" cy="482.7754" fill="#84BE84" rx="3" ry="3" style="stroke: #038048; stroke-width: 1.0;"/><text fill="#000000" font-family="sans-serif" font-size="11" lengthAdjust="spacingAndGlyphs" textLength="32" x="215.5" y="486.4102">stop()</text><polygon fill="#FFFF44" points="206.5,490.7305,210.5,494.7305,206.5,498.7305,202.5,494.7305" style="stroke: #B38D22; stroke-width: 1.0;"/><text fill="#000000" font-family="sans-serif" font-size="11" font-style="italic" lengthAdjust="spacingAndGlyphs" textLength="51" x="215.5" y="499.3652">doParse()</text><polygon fill="#FFFF44" points="206.5,503.6855,210.5,507.6855,206.5,511.6855,202.5,507.6855" style="stroke: #B38D22; stroke-width: 1.0;"/><text fill="#000000" font-family="sans-serif" font-size="11" font-style="italic" lengthAdjust="spacingAndGlyphs" textLength="47" x="215.5" y="512.3203">doStart()</text><!--class ReplicationBasedBinlogParser--><rect fill="#FEFECE" filter="url(#f1cp28rp3i74k)" height="86.8652" id="ReplicationBasedBinlogParser" style="stroke: #A80036; stroke-width: 1.5;" width="201" x="225" y="618"/><ellipse cx="240" cy="634" fill="#ADD1B2" rx="11" ry="11" style="stroke: #A80036; stroke-width: 1.0;"/><path d="M242.4731,640.1431 Q241.8921,640.4419 241.2529,640.5913 Q240.6138,640.7407 239.9082,640.7407 Q237.4014,640.7407 236.0815,639.0889 Q234.7617,637.437 234.7617,634.3159 Q234.7617,631.1865 236.0815,629.5347 Q237.4014,627.8828 239.9082,627.8828 Q240.6138,627.8828 241.2612,628.0322 Q241.9087,628.1816 242.4731,628.4805 L242.4731,631.2031 Q241.8423,630.6221 241.2488,630.3523 Q240.6553,630.0825 240.0244,630.0825 Q238.6797,630.0825 237.9949,631.1492 Q237.3101,632.2158 237.3101,634.3159 Q237.3101,636.4077 237.9949,637.4744 Q238.6797,638.541 240.0244,638.541 Q240.6553,638.541 241.2488,638.2712 Q241.8423,638.0015 242.4731,637.4204 Z "/><text fill="#000000" font-family="sans-serif" font-size="12" lengthAdjust="spacingAndGlyphs" textLength="169" x="254" y="638.5352">ReplicationBasedBinlogParser</text><line style="stroke: #A80036; stroke-width: 1.5;" x1="226" x2="425" y1="650" y2="650"/><polygon fill="none" points="236,656,240,660,236,664,232,660" style="stroke: #B38D22; stroke-width: 1.0;"/><text fill="#000000" font-family="sans-serif" font-size="11" lengthAdjust="spacingAndGlyphs" textLength="108" x="245" y="664.6348">Transport transport</text><polygon fill="none" points="236,668.9551,240,672.9551,236,676.9551,232,672.9551" style="stroke: #B38D22; stroke-width: 1.0;"/><text fill="#000000" font-family="sans-serif" font-size="11" lengthAdjust="spacingAndGlyphs" textLength="117" x="245" y="677.5898">String binlogFileName</text><line style="stroke: #A80036; stroke-width: 1.5;" x1="226" x2="425" y1="683.9102" y2="683.9102"/><polygon fill="#FFFF44" points="236,689.9102,240,693.9102,236,697.9102,232,693.9102" style="stroke: #B38D22; stroke-width: 1.0;"/><text fill="#000000" font-family="sans-serif" font-size="11" lengthAdjust="spacingAndGlyphs" textLength="51" x="245" y="698.5449">doParse()</text><!--reverse link OpenReplicator to Transport--><path d="M234.75,143.34 C217.56,160.2 199.48,177.93 183.12,193.97 " fill="none" id="OpenReplicator&lt;-Transport" style="stroke: #A80036; stroke-width: 1.0;"/><polygon fill="#FFFFFF" points="244.19,134.08,237.105,135.4227,235.6194,142.4791,242.7044,141.1364,244.19,134.08" style="stroke: #A80036; stroke-width: 1.0;"/><!--reverse link OpenReplicator to BinlogParser--><path d="M307.5,147.28 C307.5,165.21 307.5,183.9 307.5,200.31 " fill="none" id="OpenReplicator&lt;-BinlogParser" style="stroke: #A80036; stroke-width: 1.0;"/><polygon fill="#FFFFFF" points="307.5,134.08,303.5,140.08,307.5,146.08,311.5,140.08,307.5,134.08" style="stroke: #A80036; stroke-width: 1.0;"/><!--reverse link OpenReplicator to BinlogEventListener--><path d="M377,143.73 C402.67,170.21 430.37,198.8 450.5,219.57 " fill="none" id="OpenReplicator&lt;-BinlogEventListener" style="stroke: #A80036; stroke-width: 1.0;"/><polygon fill="#FFFFFF" points="367.66,134.08,368.9641,141.1722,376.0123,142.6962,374.7082,135.604,367.66,134.08" style="stroke: #A80036; stroke-width: 1.0;"/><!--reverse link Transport to AbstractTransport--><path d="M112.65,326.86 C107.65,354.07 102.24,383.56 98.14,405.88 " fill="none" id="Transport&lt;-AbstractTransport" style="stroke: #A80036; stroke-width: 1.0;"/><polygon fill="none" points="105.78,325.52,116.28,307.11,119.55,328.05,105.78,325.52" style="stroke: #A80036; stroke-width: 1.0;"/><!--reverse link AbstractTransport to TransportImpl--><path d="M91.5,500.34 C91.5,524.24 91.5,552.56 91.5,578.7 " fill="none" id="AbstractTransport&lt;-TransportImpl" style="stroke: #A80036; stroke-width: 1.0;"/><polygon fill="none" points="84.5,500.24,91.5,480.24,98.5,500.24,84.5,500.24" style="stroke: #A80036; stroke-width: 1.0;"/><!--reverse link BinlogParser to AbstractBinlogParser--><path d="M314.03,320.64 C315.45,335.65 316.96,351.61 318.4,366.84 " fill="none" id="BinlogParser&lt;-AbstractBinlogParser" style="stroke: #A80036; stroke-width: 1.0;"/><polygon fill="none" points="307.05,321.13,312.14,300.56,320.99,319.81,307.05,321.13" style="stroke: #A80036; stroke-width: 1.0;"/><!--reverse link AbstractBinlogParser to ReplicationBasedBinlogParser--><path d="M325.5,539.25 C325.5,566.66 325.5,595.2 325.5,617.7 " fill="none" id="AbstractBinlogParser&lt;-ReplicationBasedBinlogParser" style="stroke: #A80036; stroke-width: 1.0;"/><polygon fill="none" points="318.5,539.11,325.5,519.11,332.5,539.11,318.5,539.11" style="stroke: #A80036; stroke-width: 1.0;"/><!--
@startuml "open-replicator class"
class OpenReplicator {
  # Transport transport
  # BinlogParser binlogParser
  # BinlogEventListener binlogEventListener
  + start()
  + stop()
  # dumpBinlog()
}

OpenReplicator o- - Transport
OpenReplicator o- - BinlogParser
OpenReplicator o- - BinlogEventListener

interface Transport {
  + connect()
  + disconnect()
  + getContext()
  + getInputStream()
  + getOutputStream()
}

abstract AbstractTransport {
  # Context context
  + getContext()
}

class TransportImpl {
  # Socket socket
  # TransportInputStream is
  # TransportOutputStream os
  # level1BufferSize
  # level2BufferSize
  + connect()
  + disconnect()
  + getInputStream()
  + getOutputStream()
}

Transport <|- - AbstractTransport
AbstractTransport <|- - TransportImpl

interface BinlogParser {
  + start()
  + stop()
  + setEventListener()
  + addParserListener()
}

abstract AbstractBinlogParser {
  # BinlogEventFilter eventFilter
  # BinlogEventListener eventListener
  # BinlogEventParser[] parsers
  # List<BinlogParserListener> parserListeners
  + start()
  + stop()
  # {abstract} doParse()
  # {abstract} doStart()
}

class ReplicationBasedBinlogParser {
  # Transport transport
  # String binlogFileName
  # doParse()
}

BinlogParser <|- - AbstractBinlogParser
AbstractBinlogParser <|- - ReplicationBasedBinlogParser

interface BinlogEventListener {
  + onEvents()
}

@enduml

PlantUML version 1.2019.09(Tue Aug 27 00:19:51 HKT 2019)
(GPL source distribution)
Java Runtime: Java(TM) SE Runtime Environment
JVM: Java HotSpot(TM) 64-Bit Server VM
Java Version: 1.8.0_221-b11
Operating System: Mac OS X
OS Version: 10.14.6
Default Encoding: UTF-8
Language: zh
Country: CN
--></g></svg>